# xmcd
#
# Track frame offsets: 
#        182
#        17705
#        28400
#        39945
#        51982
#        63225
#        78450
#        91460
#        116837
#        130225
#
# Disc length: 1879 seconds
#
# Revision: 1
# Processed by: cddbd v1.5.2PL0 Copyright (c) Steve Scherf et al.
# Submitted via: ExactAudioCopyFreeDBPlugin 1.0
#
DISCID=8507550a
DTITLE=Brook Benton - Brook Benton Greatest Hits
DYEAR=1991
DGENRE=R&B
TTITLE0=Rainy Night In Georgia
TTITLE1=Endlessly
TTITLE2=So Many Ways
TTITLE3=The Boll Weevil Song
TTITLE4=A Rockin' Good Way with Dinah Washington
TTITLE5=Don't It Make You Wanna Go Home
TTITLE6=Mother Nature, Father Time
TTITLE7=My Way
TTITLE8=Beyond The Sea
TTITLE9=Sweet Georgia Brown
EXTD=
EXTT0=
EXTT1=
EXTT2=
EXTT3=
EXTT4=with Dinah Washington
EXTT5=
EXTT6=
EXTT7=
EXTT8=
EXTT9=
PLAYORDER=
